<svg xmlns="http://www.w3.org/2000/svg" xmlns:xlink="http://www.w3.org/1999/xlink" width="500" zoomAndPan="magnify" viewBox="0 0 375 374.999991" height="500" preserveAspectRatio="xMidYMid meet" version="1.0"><defs><clipPath id="cf31748fa3"><path d="M 280 17.65625 L 374.671875 17.65625 L 374.671875 357.40625 L 280 357.40625 Z M 280 17.65625 " clip-rule="nonzero"/></clipPath></defs><path stroke-linecap="round" transform="matrix(-0.75, 0, 0, -0.75, 274.277331, 316.071718)" fill="none" stroke-linejoin="miter" d="M 21.999985 22.001876 L 343.713548 22.001876 " stroke="#5ce1e6" stroke-width="44" stroke-opacity="1" stroke-miterlimit="4"/><path stroke-linecap="round" transform="matrix(-0.75, 0, 0, -0.75, 274.278913, 229.961807)" fill="none" stroke-linejoin="miter" d="M 22.002094 22.001161 L 266.335443 22.001161 " stroke="#5ce1e6" stroke-width="44" stroke-opacity="1" stroke-miterlimit="4"/><path stroke-linecap="round" transform="matrix(-0.75, 0, 0, -0.75, 274.283571, 143.711813)" fill="none" stroke-linejoin="miter" d="M 21.997888 22.001169 L 200.299983 22.001169 " stroke="#5ce1e6" stroke-width="44" stroke-opacity="1" stroke-miterlimit="4"/><g clip-path="url(#cf31748fa3)"><path fill="#5ce1e6" d="M 327.789062 17.679688 C 324.878906 17.585938 321.972656 18.648438 319.84375 20.832031 L 283.746094 57.117188 C 279.582031 61.285156 279.628906 68.019531 283.796875 72.1875 C 287.960938 76.351562 294.695312 76.304688 298.863281 72.136719 L 316.789062 54.164062 L 316.789062 346.746094 C 316.789062 352.65625 321.539062 357.40625 327.449219 357.40625 C 333.359375 357.40625 338.105469 352.65625 338.105469 346.746094 L 338.105469 53.4375 L 356.664062 71.992188 C 360.828125 76.160156 367.5625 76.160156 371.730469 71.992188 C 373.8125 69.910156 374.832031 67.195312 374.832031 64.433594 C 374.832031 61.722656 373.8125 58.960938 371.730469 56.875 L 335.636719 20.78125 C 333.457031 18.648438 330.597656 17.632812 327.789062 17.679688 Z M 327.789062 17.679688 " fill-opacity="1" fill-rule="nonzero"/></g></svg>