<svg xmlns="http://www.w3.org/2000/svg" xmlns:xlink="http://www.w3.org/1999/xlink" width="500" zoomAndPan="magnify" viewBox="0 0 375 374.999991" height="500" preserveAspectRatio="xMidYMid meet" version="1.0"><defs><clipPath id="f58ff6ea95"><path d="M 279 0.585938 L 374 0.585938 L 374 339.835938 L 279 339.835938 Z M 279 0.585938 " clip-rule="nonzero"/></clipPath><clipPath id="52c6d0a78b"><rect x="0" width="375" y="0" height="341"/></clipPath></defs><g transform="matrix(1, 0, 0, 1, 0, 17)"><g clip-path="url(#52c6d0a78b)"><path stroke-linecap="round" transform="matrix(3.326, 0.000000000000001146, -0.000000000000001146, 3.326, 0.0000045, 41.798247)" fill="none" stroke-linejoin="miter" d="M 4.99967 5.000433 L 77.4673 5.000433 " stroke="#5ce1e6" stroke-width="10" stroke-opacity="1" stroke-miterlimit="4"/><path stroke-linecap="round" transform="matrix(3.326, 0, 0, 3.326, 58.032829, 127.768125)" fill="none" stroke-linejoin="miter" d="M 5.000371 5.000094 L 60.019067 5.000094 " stroke="#5ce1e6" stroke-width="10" stroke-opacity="1" stroke-miterlimit="4"/><path stroke-linecap="round" transform="matrix(3.326, 0, 0, 3.326, 108.166682, 213.738013)" fill="none" stroke-linejoin="miter" d="M 5.000058 4.999752 L 45.127791 4.999752 " stroke="#5ce1e6" stroke-width="10" stroke-opacity="1" stroke-miterlimit="4"/><g clip-path="url(#f58ff6ea95)"><path fill="#5ce1e6" d="M 326.625 340.3125 C 329.535156 340.410156 332.441406 339.34375 334.570312 337.164062 L 370.667969 300.875 C 374.832031 296.707031 374.785156 289.972656 370.617188 285.804688 C 366.453125 281.640625 359.71875 281.6875 355.550781 285.855469 L 337.625 303.828125 L 337.625 11.242188 C 337.625 5.332031 332.875 0.585938 326.964844 0.585938 C 321.054688 0.585938 316.308594 5.332031 316.308594 11.242188 L 316.308594 304.554688 L 297.75 286 C 293.585938 281.832031 286.851562 281.832031 282.683594 286 C 280.601562 288.082031 279.582031 290.796875 279.582031 293.558594 C 279.582031 296.269531 280.601562 299.03125 282.683594 301.117188 L 318.777344 337.210938 C 320.957031 339.34375 323.816406 340.359375 326.625 340.3125 Z M 326.625 340.3125 " fill-opacity="1" fill-rule="nonzero"/></g></g></g></svg>